<?xml version="1.0" standalone="no"?>
<!DOCTYPE svg PUBLIC "-//W3C//DTD SVG 20010904//EN"
 "http://www.w3.org/TR/2001/REC-SVG-20010904/DTD/svg10.dtd">
<svg version="1.0" xmlns="http://www.w3.org/2000/svg"
 width="300.000000pt" height="277.000000pt" viewBox="0 0 300.000000 277.000000"
 preserveAspectRatio="xMidYMid meet">
<metadata>
Created by potrace 1.10, written by Peter Selinger 2001-2011
</metadata>
<g transform="translate(0.000000,277.000000) scale(0.100000,-0.100000)"
fill="#000000" stroke="none">
<path d="M1136 2745 c-133 -66 -282 -218 -353 -360 -63 -123 -104 -331 -84
-417 8 -36 6 -41 -51 -115 -32 -43 -86 -132 -118 -198 -53 -107 -63 -122 -94
-133 -39 -14 -156 -99 -201 -146 -154 -160 -237 -372 -233 -596 0 -41 3 -61 4
-45 23 196 46 262 130 375 56 75 117 129 203 180 47 28 69 46 62 53 -19 19
-192 -88 -239 -148 -31 -38 -45 -40 -26 -4 26 52 87 129 140 180 59 55 183
144 191 136 3 -3 0 -20 -6 -38 -6 -18 -11 -44 -10 -58 0 -24 1 -24 9 -6 5 11
17 49 27 84 14 49 24 66 45 77 15 8 31 14 37 14 10 0 44 -53 76 -120 13 -27
33 -50 49 -58 41 -18 43 -15 5 11 -22 15 -36 33 -40 56 -4 18 -16 46 -28 62
-12 15 -21 35 -21 42 0 8 -14 20 -30 27 l-30 13 36 66 c54 97 114 178 180 244
77 77 94 86 94 52 0 -39 59 -154 91 -177 l28 -21 -34 -39 c-19 -21 -35 -45
-35 -54 0 -11 15 0 41 30 22 25 45 46 51 46 5 0 35 -23 66 -50 77 -69 219
-138 297 -145 65 -5 65 -5 -62 32 -94 27 -261 143 -218 151 9 2 34 -8 55 -22
49 -32 56 -32 138 2 145 62 304 62 441 1 35 -16 69 -29 76 -29 17 0 7 -45 -14
-63 -15 -14 -91 -42 -171 -65 l-35 -10 32 -1 c37 -1 103 19 181 55 42 20 52
29 52 49 0 26 33 55 63 55 29 0 67 45 67 80 0 23 -4 30 -20 30 -10 0 -30 10
-44 23 -14 12 -35 30 -46 40 -14 12 -19 25 -15 38 8 24 -1 25 -14 0 -9 -16 -3
-27 31 -62 82 -88 88 -123 21 -117 -34 3 -38 6 -38 31 1 22 -4 27 -23 27 l-23
0 20 -26 c15 -20 18 -31 11 -45 -17 -30 -25 -30 -93 1 -87 39 -145 52 -242 51
-91 0 -176 -20 -252 -58 l-52 -27 -51 43 c-48 41 -54 43 -105 39 -54 -3 -55
-2 -75 32 -29 52 -90 180 -90 188 0 9 109 81 165 110 33 16 64 20 179 23 125
4 140 2 150 -14 16 -26 -12 -44 -80 -53 -62 -7 -110 -35 -139 -81 -11 -17 -36
-39 -55 -48 -19 -9 -45 -24 -57 -33 l-23 -17 35 -37 c38 -42 67 -52 43 -15
-17 25 -15 60 3 66 7 2 22 14 33 26 12 13 29 24 39 26 10 2 17 8 15 12 -4 11
41 36 64 37 9 0 19 -5 21 -10 3 -6 4 -5 3 2 -4 22 17 33 70 36 50 2 51 2 52
-27 0 -16 8 -42 17 -58 16 -27 16 -27 11 -3 -18 80 -18 102 0 142 14 31 15 43
6 46 -43 14 22 52 91 52 73 0 128 -59 107 -115 -11 -28 -6 -27 -112 -29 -46 0
-77 -5 -75 -11 1 -6 28 -9 62 -7 l60 2 -36 -24 c-33 -23 -69 -66 -69 -83 0 -3
13 6 30 22 l30 29 23 -22 c14 -13 35 -22 53 -21 l29 1 -33 8 c-45 11 -59 25
-42 45 7 8 17 15 22 15 6 0 23 10 40 21 23 17 39 20 71 16 51 -6 152 -43 172
-63 13 -14 18 -13 39 4 15 11 38 18 58 17 18 -1 55 6 81 16 26 11 55 19 63 19
19 0 126 -83 166 -129 101 -113 203 -296 238 -429 23 -84 22 -104 -4 -83 -24
20 -145 28 -232 15 -157 -23 -270 -79 -386 -191 -38 -36 -53 -44 -73 -41 -21
4 -23 3 -13 -9 32 -39 45 -36 115 34 49 49 91 80 153 110 121 60 199 76 338
70 63 -3 116 -8 119 -11 13 -13 21 -170 12 -261 -17 -190 -73 -346 -181 -502
-66 -95 -175 -178 -291 -221 -72 -27 -92 -27 -117 -2 -15 15 -19 28 -14 48 11
51 27 71 95 122 110 82 210 214 263 346 36 90 66 240 66 331 l0 74 -47 -6
c-61 -8 -150 -33 -185 -51 -25 -13 -28 -20 -28 -67 -1 -28 -5 -71 -9 -95 -5
-23 -5 -45 0 -47 13 -9 28 28 39 101 12 78 20 87 96 109 80 23 92 21 100 -20
7 -41 -18 -199 -45 -276 -42 -124 -129 -254 -233 -348 l-56 -51 -4 50 c-4 63
10 105 42 126 45 30 50 42 33 82 -10 24 -13 52 -10 82 5 37 4 41 -4 20 -6 -14
-8 -52 -5 -87 6 -59 5 -63 -19 -79 -35 -23 -47 -48 -55 -119 -10 -81 -29 -127
-65 -158 -17 -15 -24 -27 -17 -27 7 0 11 -4 7 -10 -3 -5 1 -25 9 -45 18 -41
65 -66 114 -60 18 2 32 1 32 -4 0 -11 -74 -51 -94 -51 -49 0 -170 189 -201
315 -17 68 -19 221 -4 280 29 113 29 115 17 135 -14 21 -104 70 -130 70 -9 0
-32 -7 -51 -15 -20 -8 -49 -15 -65 -15 -52 0 -133 36 -175 78 -38 38 -40 42
-25 59 8 10 19 40 23 66 5 40 15 58 56 100 27 28 49 52 49 53 0 1 -9 0 -20 -3
-49 -13 -123 -136 -106 -179 6 -15 -30 -44 -54 -44 -8 0 -33 25 -55 56 -55 75
-73 93 -112 103 -18 5 -52 25 -75 44 -68 55 -85 61 -127 47 -56 -18 -87 -1
-115 62 -17 39 -21 58 -14 71 8 16 7 17 -11 7 -24 -12 -28 -48 -6 -56 8 -4 15
-13 15 -21 0 -27 31 -73 60 -88 38 -20 45 -19 68 5 17 18 23 19 48 8 16 -6 50
-31 76 -55 32 -29 56 -43 75 -43 28 -1 63 -20 63 -35 0 -17 111 -153 143 -175
41 -28 77 -78 77 -107 0 -20 -42 -63 -61 -63 -18 0 -8 35 18 62 30 32 16 37
-30 10 -18 -9 -33 -18 -35 -18 -2 -1 5 -18 15 -38 17 -37 17 -38 -7 -83 -16
-30 -42 -57 -76 -80 l-52 -35 -37 40 c-113 125 -171 252 -177 384 l-3 58 -47
20 c-49 21 -98 26 -98 11 0 -5 21 -17 48 -27 62 -23 60 -21 67 -79 12 -106 32
-162 92 -261 41 -68 103 -136 134 -146 12 -4 12 -8 -1 -23 -8 -9 -26 -40 -40
-68 -15 -31 -39 -60 -60 -74 -84 -53 -85 -54 -82 -132 1 -39 -1 -71 -6 -71 -4
0 -17 18 -30 40 -12 22 -37 56 -55 77 -30 34 -32 42 -34 117 -3 122 -6 138
-30 177 -67 107 -101 224 -110 372 -3 59 -11 110 -16 114 -17 10 0 -204 22
-282 11 -39 36 -109 56 -155 34 -79 37 -93 38 -196 l2 -112 49 -71 c62 -90 79
-105 109 -97 29 7 47 44 47 96 0 61 9 61 113 2 72 -42 61 -21 -15 28 -43 27
-78 53 -78 57 1 5 15 17 33 28 18 11 43 41 57 67 14 26 36 58 49 72 l24 25 38
-20 c22 -11 39 -22 39 -25 0 -16 -42 -166 -55 -198 -26 -61 -8 -55 19 7 14 31
30 85 37 122 10 57 9 69 -6 91 -17 26 -16 27 8 51 14 14 30 22 36 19 17 -11
13 -122 -8 -206 -26 -110 -59 -173 -96 -184 -63 -18 -115 -46 -136 -76 -13
-16 -28 -30 -34 -30 -25 0 -185 122 -253 194 -84 88 -129 156 -184 273 -63
135 -90 254 -92 410 -1 171 0 173 139 181 76 4 99 2 106 -9 14 -23 10 -29 -18
-29 -41 0 -15 -18 32 -22 45 -3 55 13 36 60 -11 27 -13 27 -89 24 -42 -2 -113
-9 -157 -16 l-80 -12 -7 -39 c-28 -161 18 -417 110 -600 56 -112 109 -184 207
-280 111 -109 228 -184 361 -231 100 -36 134 -54 100 -54 -9 0 -49 -14 -89
-31 -40 -17 -79 -33 -87 -34 -8 -1 -22 -5 -30 -8 -50 -20 -264 -38 -247 -21 3
3 23 10 44 15 85 22 100 27 143 47 58 27 114 68 102 76 -6 3 -38 -8 -72 -25
-82 -41 -131 -58 -211 -73 -119 -23 -286 7 -397 72 -24 13 -45 22 -48 19 -7
-7 41 -40 111 -75 142 -72 282 -96 465 -81 122 10 172 24 282 81 l77 40 91
-12 c101 -14 286 -9 367 11 46 11 55 10 70 -3 27 -24 112 -64 189 -90 60 -20
89 -23 224 -23 121 0 171 4 225 19 108 29 275 112 275 137 0 5 -28 -6 -62 -24
-96 -51 -178 -71 -288 -71 -116 1 -196 21 -302 75 -44 22 -83 38 -86 35 -24
-24 156 -113 283 -139 11 -3 -20 -5 -68 -6 -85 -1 -172 13 -192 30 -5 5 -18 9
-30 9 -11 0 -31 7 -43 16 -12 8 -22 12 -22 9 0 -3 -12 1 -27 9 -16 8 -36 17
-45 20 -32 10 -19 21 50 45 157 54 264 122 388 246 137 136 211 254 267 425
63 191 73 395 28 575 -11 44 -18 81 -16 83 2 2 41 -22 87 -53 98 -67 199 -170
234 -239 28 -54 24 -53 -41 6 -41 38 -107 81 -178 117 -19 10 -30 12 -38 4 -8
-8 6 -20 48 -42 215 -116 342 -315 343 -536 1 -56 3 -66 12 -51 14 25 4 188
-17 280 -52 222 -227 442 -420 527 -39 17 -46 26 -65 77 -25 69 -108 209 -163
275 -37 45 -39 51 -33 95 7 53 -9 191 -31 272 -32 116 -137 286 -225 366 -78
71 -238 169 -238 146 0 -4 26 -23 57 -42 119 -74 205 -186 254 -330 25 -76 29
-103 29 -199 0 -103 8 -135 24 -94 11 28 8 187 -4 235 -7 25 -10 54 -8 64 5
23 51 -63 79 -145 20 -61 47 -276 36 -287 -4 -4 -32 15 -63 41 -45 39 -58 45
-66 34 -8 -11 -9 -10 -4 4 9 27 -119 105 -254 156 -146 54 -276 75 -426 67
-262 -13 -473 -99 -677 -278 -26 -23 -49 -39 -51 -37 -2 2 0 54 4 114 9 119
42 237 86 306 13 21 24 44 24 50 0 7 2 10 5 7 3 -2 -2 -36 -10 -74 -23 -114
-23 -239 0 -270 13 -17 14 -9 14 77 0 129 15 208 62 306 55 116 117 183 261
281 42 29 26 27 -36 -3z m274 -533 c0 -12 -22 -32 -36 -32 -7 0 -25 5 -41 11
l-28 12 25 7 c34 11 80 12 80 2z m366 -22 c82 -21 264 -103 264 -118 0 -13
-56 -32 -94 -32 -17 0 -47 -8 -65 -18 -33 -18 -37 -18 -85 -1 -28 9 -70 23
-93 30 -23 6 -40 16 -37 20 9 16 -17 88 -43 120 l-27 32 51 -7 c29 -3 86 -15
129 -26z m-351 -1150 c22 -11 55 -20 75 -20 20 0 53 9 75 20 22 11 43 20 47
20 4 0 27 -13 51 -30 25 -16 50 -30 55 -30 22 0 22 -22 0 -82 -31 -85 -33
-283 -4 -368 36 -104 80 -182 143 -250 35 -37 63 -70 63 -73 0 -3 -26 -8 -57
-12 -32 -3 -85 -13 -118 -20 -108 -25 -259 -36 -363 -25 -108 11 -211 35 -257
59 -16 8 -32 16 -35 16 -67 17 -74 28 -37 63 25 24 87 52 114 52 12 0 28 21
47 63 60 127 68 162 70 313 l1 141 38 49 c27 34 38 58 37 79 -4 64 -3 65 55
35z"/>
<path d="M1467 359 c-15 -22 -35 -43 -44 -46 -8 -3 -53 6 -97 20 -45 15 -89
27 -97 27 -18 0 58 -35 112 -51 47 -14 48 -22 10 -45 -16 -10 -34 -28 -40 -41
-17 -37 6 -28 55 21 l44 43 95 7 c60 5 95 4 95 -3 0 -12 55 -68 81 -81 34 -19
22 9 -21 47 -22 20 -40 41 -40 46 0 19 102 -2 159 -33 l56 -31 -33 29 c-42 37
-119 62 -192 62 -56 0 -59 2 -80 35 -12 19 -25 35 -28 35 -4 -1 -19 -19 -35
-41z"/>
<path d="M1142 296 c-35 -38 -39 -46 -18 -46 17 0 66 49 66 66 0 22 -13 16
-48 -20z"/>
<path d="M1357 1991 c3 -11 -2 -32 -10 -45 -15 -22 -13 -36 4 -36 13 0 22 81
11 92 -8 8 -9 4 -5 -11z"/>
<path d="M1629 1982 c-3 -20 -2 -29 4 -23 5 5 7 19 5 32 -3 20 -5 19 -9 -9z"/>
<path d="M2087 1930 c-19 -41 -49 -95 -66 -120 -17 -25 -31 -49 -31 -53 0 -20
40 17 77 71 45 66 66 120 60 154 -3 18 -11 7 -40 -52z"/>
<path d="M1880 1941 c0 -5 11 -16 25 -25 14 -9 25 -25 25 -36 0 -11 4 -20 8
-20 11 0 47 39 41 43 -2 2 -21 13 -42 25 -41 24 -57 27 -57 13z"/>
<path d="M1336 1870 c-16 -17 -25 -30 -19 -30 10 0 34 24 47 48 11 19 4 14
-28 -18z"/>
<path d="M1795 1871 c-8 -27 -2 -36 13 -18 6 7 7 18 3 26 -7 10 -10 8 -16 -8z"/>
<path d="M1160 1825 c-63 -41 -48 -48 18 -9 35 21 53 25 84 21 33 -4 37 -3 27
9 -20 24 -71 16 -129 -21z"/>
<path d="M724 1836 c-4 -11 2 -39 14 -68 l21 -49 -35 -34 c-20 -21 -34 -44
-34 -59 0 -21 -5 -25 -32 -28 -37 -3 -44 -21 -11 -26 12 -2 31 6 42 17 12 12
33 22 49 23 48 2 52 3 53 11 1 4 -5 21 -11 38 -11 26 -11 33 3 47 16 15 20 13
55 -21 51 -50 62 -47 18 5 -20 23 -36 46 -36 51 0 4 -12 7 -27 5 -25 -3 -28 1
-36 42 -10 53 -23 71 -33 46z"/>
<path d="M2254 1839 c-11 -16 -21 -37 -58 -129 -14 -36 -26 -71 -26 -77 0 -48
58 48 85 140 17 60 17 90 -1 66z"/>
<path d="M1905 1686 c-32 -26 -30 -45 4 -27 21 12 48 51 34 51 -4 0 -21 -11
-38 -24z"/>
<path d="M2004 1625 c-7 -28 -49 -44 -67 -26 -6 6 -23 11 -38 11 -15 0 -31 5
-34 10 -3 6 -11 10 -17 10 -23 0 13 -27 52 -39 45 -13 53 -31 15 -31 -39 0
-75 -23 -130 -84 -47 -52 -51 -60 -61 -132 -9 -64 -9 -74 3 -58 7 10 13 41 13
70 0 48 3 54 40 88 22 20 40 40 40 44 0 23 48 52 86 52 21 0 56 5 76 10 41 12
87 -2 134 -39 21 -16 29 -18 44 -8 16 10 24 7 48 -16 35 -34 62 -36 62 -4 0
29 -35 63 -60 59 -11 -2 -21 5 -25 18 -5 17 -10 19 -20 10 -17 -14 -35 -5 -35
16 0 11 -4 12 -19 4 -31 -16 -40 -12 -58 25 -20 41 -40 45 -49 10z m31 -53
c-34 -4 -42 3 -25 23 12 14 15 14 33 -2 19 -18 19 -18 -8 -21z m107 -19 c42
-18 50 -33 18 -33 -23 0 -70 28 -70 41 0 13 8 11 52 -8z"/>
<path d="M865 1623 c11 -3 24 -9 30 -14 5 -5 20 -9 35 -9 23 1 23 2 -9 15 -18
8 -43 14 -55 14 -20 -1 -20 -2 -1 -6z"/>
<path d="M2210 1611 c-21 -14 -14 -17 80 -30 47 -7 98 -15 114 -18 45 -9 28
19 -20 33 -61 18 -157 26 -174 15z"/>
<path d="M960 1565 c-9 -10 -33 -15 -79 -16 l-66 -1 55 -10 c30 -6 57 -13 60
-17 3 -4 19 0 37 9 28 13 30 17 19 33 -12 15 -15 15 -26 2z"/>
<path d="M1560 1477 l0 -73 55 -57 c51 -52 55 -61 55 -103 0 -63 26 -102 112
-165 68 -51 72 -52 133 -51 51 2 65 -2 81 -19 18 -20 18 -21 -6 -67 -32 -60
-101 -138 -159 -180 -57 -41 -71 -59 -71 -93 0 -36 44 -173 65 -201 20 -27 19
-18 -14 72 -11 30 -24 79 -29 108 l-9 52 36 22 c70 44 201 184 201 216 0 5 7
15 15 22 8 7 15 28 15 46 0 48 -30 65 -112 63 -59 -2 -70 1 -113 31 -78 54
-115 91 -115 115 0 57 -51 147 -96 167 -22 10 -24 17 -24 90 0 45 -4 78 -10
78 -6 0 -10 -31 -10 -73z"/>
<path d="M1427 1523 c-10 -10 -8 -86 3 -103 7 -11 10 3 10 48 0 62 -1 67 -13
55z"/>
<path d="M954 1482 c9 -15 48 -23 43 -9 -2 7 -14 14 -26 15 -13 2 -21 -1 -17
-6z"/>
<path d="M780 1377 c0 -2 28 -14 63 -27 115 -41 197 -91 267 -162 66 -67 67
-68 85 -48 17 19 17 20 -1 20 -10 0 -39 22 -64 49 -43 46 -163 125 -225 148
-32 12 -125 27 -125 20z"/>
<path d="M701 1079 c-1 -18 48 -98 72 -118 10 -8 17 -28 17 -47 0 -18 5 -36
11 -40 7 -4 9 -23 5 -53 -6 -44 -6 -45 8 -21 20 32 20 64 1 80 -11 9 -14 23
-9 45 5 27 1 36 -35 68 -23 20 -47 51 -55 69 -8 18 -15 26 -15 17z"/>
<path d="M835 709 c31 -59 136 -154 135 -121 -1 14 -129 152 -142 152 -5 0 -1
-14 7 -31z"/>
</g>
</svg>
