<?xml version="1.0" standalone="no"?>
<!DOCTYPE svg PUBLIC "-//W3C//DTD SVG 20010904//EN"
 "http://www.w3.org/TR/2001/REC-SVG-20010904/DTD/svg10.dtd">
<svg version="1.0" xmlns="http://www.w3.org/2000/svg"
 width="900.000000pt" height="831.000000pt" viewBox="0 0 900.000000 831.000000"
 preserveAspectRatio="xMidYMid meet">
<metadata>
Created by potrace 1.10, written by Peter Selinger 2001-2011
</metadata>
<g transform="translate(0.000000,831.000000) scale(0.100000,-0.100000)"
fill="#000000" stroke="none">
<path d="M3537 8290 c-3 -13 -14 -20 -31 -20 -14 0 -46 -11 -72 -25 -26 -14
-52 -25 -58 -25 -31 0 -302 -199 -465 -341 -173 -151 -346 -344 -410 -458 -9
-16 -29 -48 -44 -71 -62 -91 -169 -302 -212 -415 -13 -33 -33 -84 -44 -112
-30 -75 -60 -186 -76 -278 -7 -44 -18 -105 -23 -135 -23 -124 -35 -373 -24
-478 6 -57 16 -110 22 -117 18 -22 3 -66 -41 -115 -122 -138 -289 -372 -381
-535 -44 -77 -158 -313 -158 -326 0 -8 -4 -19 -9 -24 -5 -6 -24 -48 -42 -95
-34 -88 -73 -140 -107 -140 -25 0 -164 -68 -234 -115 -126 -83 -238 -166 -238
-174 0 -4 -14 -15 -32 -25 -47 -28 -279 -265 -321 -328 -19 -30 -43 -61 -52
-68 -14 -12 -53 -66 -100 -139 -87 -135 -119 -189 -125 -210 -4 -14 -26 -62
-48 -106 -22 -44 -45 -99 -51 -122 -6 -22 -22 -66 -36 -97 -37 -83 -85 -298
-106 -471 -15 -124 -23 -619 -10 -611 14 9 21 66 22 177 0 107 22 287 39 318
5 10 12 42 16 72 3 30 21 92 39 139 18 47 36 96 40 110 4 14 27 64 51 111 24
47 44 88 44 92 0 3 15 27 33 52 17 25 42 60 54 78 77 113 335 391 409 441 67
46 108 74 134 94 14 10 45 29 70 42 100 54 216 123 237 143 26 24 15 47 -22
47 -33 0 -132 -36 -162 -60 -14 -11 -33 -20 -42 -20 -9 0 -34 -14 -55 -30 -22
-17 -46 -30 -55 -30 -8 0 -29 -14 -46 -30 -18 -17 -46 -38 -63 -48 -48 -26
-225 -180 -282 -245 -48 -56 -115 -117 -118 -109 -5 17 54 130 123 234 22 34
45 68 50 77 22 35 105 138 134 165 17 17 31 35 31 41 0 20 202 205 337 308 23
18 86 61 139 97 53 36 119 84 146 108 28 24 55 41 61 39 19 -6 20 -74 2 -128
-16 -49 -31 -121 -42 -207 -5 -39 -3 -43 13 -40 21 4 44 63 64 163 15 71 57
201 76 231 7 12 14 36 16 55 6 60 139 134 210 116 15 -4 31 -23 46 -56 12 -28
45 -74 72 -104 28 -30 50 -62 50 -71 0 -8 11 -39 24 -68 14 -29 27 -64 30 -78
7 -33 69 -106 110 -127 26 -14 124 -53 133 -53 26 0 -66 59 -93 60 -15 1 -48
33 -81 80 -22 31 -34 62 -39 100 -9 79 -36 134 -94 192 -50 50 -62 84 -41 117
7 11 17 12 56 2 69 -17 130 -6 156 30 19 28 20 29 2 37 -10 4 -47 7 -83 7 -53
0 -71 -4 -94 -22 -36 -29 -48 -29 -83 0 -15 13 -50 31 -76 41 -27 10 -51 24
-53 31 -4 11 20 58 131 260 47 85 142 233 185 288 25 33 57 78 73 100 69 104
232 280 376 407 126 111 151 117 151 36 0 -63 48 -218 85 -272 14 -20 25 -47
25 -59 0 -12 9 -30 21 -41 12 -10 30 -37 41 -59 33 -64 70 -104 126 -136 28
-17 52 -35 52 -41 0 -6 -29 -39 -65 -74 -98 -96 -125 -138 -125 -194 0 -26 3
-50 6 -53 8 -8 32 25 63 86 26 51 150 169 191 182 26 8 91 -34 155 -99 41 -42
126 -115 151 -129 8 -4 25 -19 38 -32 13 -13 36 -27 50 -31 14 -3 26 -10 26
-15 0 -5 23 -21 51 -36 91 -49 123 -67 159 -91 19 -12 53 -27 75 -33 22 -6 45
-15 51 -20 6 -5 35 -16 63 -25 28 -8 66 -23 84 -34 30 -17 194 -47 285 -52 42
-2 80 17 51 26 -54 17 -134 36 -191 44 -38 6 -87 19 -110 30 -24 11 -57 23
-74 27 -16 3 -57 19 -90 35 -32 17 -65 30 -72 30 -16 0 -64 30 -75 47 -4 7
-22 13 -38 13 -22 0 -32 6 -36 18 -2 11 -37 35 -81 58 -77 39 -114 67 -181
137 -20 20 -41 37 -48 37 -13 0 -26 46 -18 60 10 16 91 12 104 -4 7 -8 31 -24
54 -36 23 -12 46 -28 50 -36 4 -8 15 -14 24 -14 10 0 29 -12 44 -26 23 -22 36
-26 87 -26 32 0 68 5 78 11 10 6 42 20 69 32 28 11 71 31 96 44 26 13 60 26
78 30 17 3 33 11 36 16 4 5 21 9 40 9 19 0 35 6 38 14 4 9 26 17 54 21 26 3
95 16 153 28 147 30 389 30 540 0 58 -12 126 -24 152 -28 25 -3 52 -13 58 -20
7 -8 19 -15 27 -15 24 0 117 -34 131 -47 7 -7 19 -13 27 -13 7 0 26 -6 42 -14
101 -50 150 -70 177 -70 21 -1 31 -6 31 -16 -2 -43 -19 -140 -25 -140 -4 0
-27 -16 -51 -35 -24 -19 -53 -35 -64 -35 -11 0 -45 -13 -75 -29 -30 -16 -71
-32 -90 -36 -19 -4 -39 -11 -45 -14 -22 -16 -103 -40 -157 -46 -63 -7 -150
-37 -156 -54 -4 -13 69 -14 143 -1 120 21 153 30 208 54 32 14 63 26 70 26 7
0 29 9 50 20 20 11 43 20 51 20 8 0 34 11 58 23 82 45 103 55 148 69 l45 15
-4 67 c-3 66 -3 67 34 102 48 45 76 59 171 84 122 33 172 94 181 226 5 66 4
72 -18 88 -14 9 -43 16 -70 16 -46 0 -48 1 -78 50 -17 28 -39 53 -49 56 -81
27 -106 42 -133 81 -51 73 -32 142 64 233 64 61 90 72 152 63 24 -3 51 0 63 6
15 8 27 8 46 -1 29 -13 68 -4 166 37 73 31 166 62 211 70 33 6 41 3 78 -30 46
-42 50 -59 22 -89 -17 -19 -58 -97 -108 -206 -9 -19 -22 -47 -30 -62 -7 -14
-13 -31 -13 -37 0 -6 -20 -40 -45 -75 -25 -36 -45 -68 -45 -71 0 -4 -13 -25
-28 -48 -88 -129 -132 -202 -132 -219 0 -23 3 -23 53 7 48 28 106 87 127 129
8 16 27 42 43 57 15 15 27 33 27 41 1 14 70 124 94 149 9 9 16 21 16 28 0 7 8
26 17 44 27 50 44 115 51 197 l7 75 34 -2 c20 -1 41 -9 50 -20 9 -11 43 -42
76 -70 82 -70 200 -187 221 -218 9 -14 24 -25 34 -25 12 0 21 -10 25 -30 4
-16 12 -33 18 -37 17 -11 71 -83 90 -119 9 -17 23 -36 31 -43 19 -16 145 -206
202 -306 20 -34 205 -408 219 -440 6 -16 20 -57 30 -90 9 -33 22 -73 27 -90 6
-16 16 -55 23 -85 8 -30 23 -90 34 -133 18 -70 20 -137 2 -137 -3 0 -26 12
-51 26 -136 79 -512 98 -767 39 -35 -8 -77 -15 -93 -15 -16 0 -31 -4 -34 -9
-3 -5 -20 -11 -38 -14 -67 -12 -173 -45 -244 -78 -22 -11 -48 -19 -57 -19 -9
0 -18 -4 -21 -9 -3 -5 -50 -32 -105 -59 -54 -28 -115 -62 -136 -76 -21 -15
-46 -26 -56 -26 -10 0 -21 -5 -24 -10 -3 -6 -48 -43 -98 -83 -51 -41 -112 -94
-137 -119 -25 -24 -55 -50 -68 -57 -12 -6 -22 -18 -22 -25 0 -7 -12 -24 -27
-39 -16 -14 -35 -36 -44 -49 -16 -22 -19 -22 -63 -10 -25 6 -57 12 -71 12 -13
0 -27 4 -30 10 -3 6 -13 10 -22 10 -12 0 -10 -5 8 -23 57 -55 160 -128 176
-125 9 2 46 37 81 78 102 119 134 152 186 195 27 22 65 54 85 70 55 46 119 89
191 127 36 19 94 51 130 71 36 19 92 44 126 55 34 11 75 27 92 36 43 22 102
40 217 66 55 12 120 29 145 36 67 21 432 21 583 0 65 -9 136 -16 157 -16 27 0
42 -5 48 -17 36 -73 56 -401 42 -682 -5 -111 -12 -206 -14 -210 -3 -4 -10 -45
-15 -91 -11 -81 -62 -316 -83 -375 -5 -16 -14 -46 -18 -65 -8 -34 -12 -47 -53
-160 -83 -228 -297 -620 -421 -772 -15 -18 -57 -70 -93 -115 -36 -46 -69 -83
-73 -83 -5 0 -26 -15 -48 -32 -88 -72 -299 -220 -353 -249 -141 -75 -288 -137
-381 -160 -26 -6 -79 -10 -117 -7 -82 4 -116 24 -145 83 -18 35 -18 45 -7 114
17 105 86 235 139 262 212 110 529 417 668 649 15 25 37 56 49 70 23 26 103
157 122 200 62 134 91 203 128 300 69 181 66 170 109 400 43 231 45 249 48
482 2 162 -1 231 -9 239 -9 9 -28 9 -75 1 -35 -6 -85 -14 -113 -17 -66 -8
-176 -33 -245 -55 -30 -10 -71 -21 -90 -25 -41 -8 -216 -90 -225 -106 -4 -6
-9 -79 -11 -162 -3 -99 -10 -165 -19 -190 -8 -20 -15 -59 -15 -85 0 -26 -4
-62 -10 -81 -12 -43 -3 -81 19 -81 25 1 60 66 76 139 7 37 18 79 24 93 6 15
15 71 21 125 6 54 14 118 19 143 9 44 39 80 68 80 7 0 32 9 54 21 53 27 258
79 335 85 78 6 90 -5 99 -88 7 -62 2 -205 -8 -283 -3 -22 -8 -56 -10 -75 -10
-69 -36 -216 -46 -255 -29 -117 -52 -198 -61 -216 -7 -11 -18 -44 -27 -72 -16
-53 -121 -275 -170 -359 -16 -25 -41 -69 -57 -97 -16 -27 -35 -52 -42 -55 -8
-3 -14 -13 -14 -23 0 -10 -20 -41 -45 -70 -25 -28 -45 -55 -45 -60 0 -5 -21
-32 -47 -60 -27 -29 -72 -79 -101 -113 -29 -33 -58 -60 -63 -60 -5 0 -65 -57
-134 -127 -101 -103 -127 -125 -135 -113 -9 14 -17 216 -12 304 2 21 9 51 17
67 8 15 15 39 15 53 0 36 43 81 107 113 58 29 120 91 129 130 4 14 -9 53 -37
110 -38 80 -42 95 -43 168 -1 61 3 86 17 105 18 26 24 90 7 90 -5 0 -12 -17
-16 -37 -4 -21 -12 -49 -19 -63 -7 -14 -16 -59 -20 -102 -6 -64 -4 -86 14
-137 25 -72 27 -128 5 -159 -8 -12 -47 -47 -85 -78 -69 -55 -91 -88 -119 -176
-14 -45 -16 -68 -25 -213 -6 -103 -9 -116 -51 -202 -24 -51 -44 -103 -44 -116
0 -17 -24 -45 -90 -103 -49 -43 -90 -82 -90 -86 0 -5 12 -8 28 -8 27 0 27 -1
28 -59 1 -49 7 -70 35 -117 45 -75 114 -133 176 -147 26 -6 95 -11 152 -11 65
-1 106 -5 108 -12 4 -12 -66 -61 -175 -123 -88 -49 -134 -54 -164 -16 -11 14
-23 25 -28 25 -11 0 -110 94 -110 104 0 4 -27 38 -59 74 -32 37 -67 83 -77
102 -11 19 -27 46 -37 60 -49 70 -73 113 -107 198 -21 52 -47 102 -59 113 -19
18 -27 47 -23 92 1 10 -9 37 -23 60 -27 46 -49 158 -66 327 -15 142 -7 507 11
540 7 14 14 50 16 81 1 36 12 74 29 110 14 30 28 74 30 98 2 25 12 59 21 77
17 31 17 34 -2 73 -10 23 -26 43 -35 46 -9 3 -21 15 -26 28 -6 12 -23 29 -39
37 -16 8 -36 19 -44 26 -8 6 -27 14 -43 18 -15 4 -36 15 -46 25 -10 10 -39 26
-65 36 -26 10 -49 22 -52 26 -7 12 -120 11 -142 0 -9 -5 -42 -19 -72 -31 -30
-11 -66 -26 -79 -33 -14 -7 -69 -12 -135 -12 -90 0 -116 3 -136 18 -13 9 -33
17 -43 17 -11 0 -46 13 -79 30 -32 17 -71 30 -86 30 -15 0 -39 8 -53 18 -48
31 -229 216 -229 233 0 9 7 22 15 29 36 30 75 102 75 138 1 20 8 66 16 102 9
36 18 78 21 94 10 51 103 175 177 237 109 90 116 97 116 120 0 21 -1 21 -34
-5 -19 -14 -43 -26 -54 -26 -19 0 -129 -90 -146 -119 -5 -9 -24 -33 -42 -54
-31 -37 -51 -80 -89 -196 -13 -40 -16 -71 -12 -125 3 -40 2 -78 -2 -85 -17
-26 -126 -71 -176 -71 -25 0 -34 7 -50 37 -11 21 -47 67 -80 103 -33 37 -80
100 -105 141 -67 110 -116 152 -214 183 -45 15 -87 26 -94 26 -25 0 -77 33
-127 81 -112 107 -170 149 -247 179 -83 32 -139 38 -157 16 -6 -7 -35 -21 -64
-30 -48 -15 -59 -15 -110 -2 -76 20 -156 79 -157 116 0 8 -8 31 -19 50 -10 19
-22 50 -26 68 -3 18 -18 52 -31 76 -22 39 -23 45 -10 72 8 16 17 40 21 53 l7
23 -50 -27 c-51 -28 -62 -45 -62 -102 0 -37 22 -63 53 -63 41 0 50 -14 43 -64
-6 -40 -3 -55 26 -113 46 -94 147 -171 251 -190 39 -7 93 32 117 85 10 23 23
42 28 42 5 0 56 -22 113 -49 104 -49 122 -64 233 -180 70 -74 119 -101 183
-101 106 0 179 -43 223 -132 16 -32 40 -73 54 -91 15 -19 26 -39 26 -45 0 -6
16 -23 36 -39 33 -24 68 -70 100 -129 39 -72 99 -136 161 -173 105 -62 204
-164 238 -244 8 -19 19 -38 25 -42 17 -11 11 -118 -8 -140 -24 -28 -91 -79
-129 -99 -53 -27 -63 -22 -63 30 0 44 4 51 70 120 39 41 70 79 70 84 0 21 -59
9 -135 -29 -44 -22 -88 -43 -99 -46 -15 -4 -17 -11 -12 -37 8 -39 42 -114 68
-147 20 -27 17 -73 -7 -101 -7 -8 -25 -42 -39 -74 -57 -124 -110 -181 -261
-281 -133 -87 -158 -94 -169 -49 -4 14 -29 49 -55 77 -123 131 -241 275 -241
295 0 4 -18 29 -39 55 -22 26 -43 58 -47 69 -3 12 -26 54 -49 94 -24 40 -46
87 -50 106 -4 18 -23 73 -42 122 -19 50 -39 110 -43 136 -34 184 -41 238 -44
340 l-4 115 -34 17 c-114 57 -289 118 -340 118 -13 0 -32 -6 -42 -13 -15 -11
-16 -18 -8 -34 12 -21 78 -57 128 -69 16 -4 34 -10 39 -15 6 -4 30 -13 55 -19
86 -22 106 -55 116 -195 5 -74 44 -285 59 -320 8 -16 18 -54 24 -83 6 -29 22
-75 36 -102 14 -27 25 -55 25 -61 0 -7 11 -27 25 -45 14 -18 25 -37 25 -43 0
-6 18 -40 40 -76 22 -36 40 -69 40 -74 0 -4 9 -16 20 -26 11 -10 20 -26 20
-36 0 -10 11 -26 24 -34 13 -9 30 -29 38 -45 8 -16 52 -70 98 -120 46 -49 89
-98 96 -108 7 -10 40 -27 74 -37 58 -17 61 -20 55 -44 -4 -14 -19 -39 -34 -56
-40 -43 -81 -107 -81 -126 0 -44 -104 -225 -139 -244 -15 -7 -34 -21 -41 -30
-7 -9 -45 -31 -84 -50 -86 -41 -171 -120 -181 -167 -3 -18 -11 -54 -17 -80 -9
-36 -9 -60 0 -95 16 -67 26 -178 18 -208 -4 -14 -13 -25 -22 -25 -18 0 -60 44
-83 87 -44 85 -120 196 -182 264 -38 42 -73 87 -79 100 -6 13 -18 35 -26 49
-19 31 -13 121 10 165 24 46 21 171 -6 237 -17 42 -22 74 -22 154 l-1 100 -45
45 c-25 24 -60 73 -77 109 -76 159 -103 218 -103 230 0 6 -7 24 -15 38 -23 41
-85 224 -85 251 0 13 -6 44 -14 70 -27 86 -46 179 -46 223 0 23 -7 93 -15 153
-8 61 -15 175 -16 255 0 80 -4 153 -8 163 -6 17 -8 17 -26 -3 -31 -34 -34
-261 -6 -433 12 -70 21 -145 21 -166 0 -21 9 -73 21 -117 12 -43 27 -106 34
-139 6 -33 20 -80 29 -105 10 -25 23 -65 29 -90 6 -25 21 -61 32 -80 12 -19
25 -51 29 -71 3 -21 17 -53 30 -72 13 -19 27 -46 31 -58 8 -28 25 -68 71 -162
32 -65 33 -71 22 -123 -11 -55 -9 -77 23 -232 8 -41 7 -70 -3 -120 -7 -37 -12
-105 -12 -152 0 -101 17 -139 116 -271 35 -46 90 -122 122 -169 88 -126 169
-200 221 -200 35 0 103 60 130 114 22 43 25 63 25 153 0 167 33 213 125 172
25 -11 57 -31 71 -44 15 -14 32 -25 38 -25 6 0 31 -14 55 -30 24 -17 52 -30
61 -30 9 0 32 -13 50 -30 28 -25 42 -30 84 -30 54 0 53 6 -4 36 -19 11 -46 27
-60 37 -50 36 -101 67 -109 67 -4 0 -27 14 -49 30 -23 17 -46 30 -50 30 -5 0
-20 9 -33 21 -13 11 -43 37 -66 57 -24 19 -43 43 -43 53 0 18 64 59 92 59 38
0 188 177 188 221 0 5 16 40 35 77 34 67 68 108 138 169 l37 33 67 -25 c37
-14 74 -32 83 -39 8 -7 30 -19 48 -26 42 -16 44 6 -30 -300 -6 -25 -14 -67
-19 -93 -4 -27 -12 -54 -16 -60 -5 -7 -17 -39 -28 -72 -10 -33 -22 -65 -26
-70 -20 -27 -50 -128 -47 -157 l3 -33 38 57 c20 31 37 65 37 76 0 11 7 25 15
32 8 7 17 28 21 49 4 20 13 48 20 62 36 71 78 267 91 425 3 47 1 63 -11 73 -9
8 -16 19 -16 25 0 7 -11 22 -25 34 -35 30 -34 77 3 108 89 77 125 104 137 104
17 0 27 -62 31 -190 1 -52 3 -102 4 -110 4 -37 -14 -168 -26 -192 -8 -15 -14
-40 -14 -55 -1 -15 -10 -64 -21 -108 -11 -44 -24 -100 -29 -125 -4 -25 -15
-58 -24 -75 -9 -16 -16 -38 -16 -47 0 -10 -4 -18 -9 -18 -5 0 -13 -10 -16 -22
-16 -57 -75 -178 -86 -178 -5 0 -9 -8 -9 -18 0 -38 -44 -56 -195 -81 -65 -11
-183 -70 -237 -119 -22 -20 -65 -67 -95 -104 -30 -38 -61 -68 -70 -68 -22 0
-115 45 -162 78 -21 15 -75 54 -120 87 -45 33 -98 69 -116 81 -172 103 -510
455 -673 699 -107 162 -264 454 -305 570 -8 22 -33 92 -56 155 -68 187 -114
381 -146 607 -20 138 -25 227 -26 428 0 282 16 365 76 399 11 6 24 17 30 24 6
8 33 13 65 14 30 0 64 6 75 13 27 16 125 25 310 27 92 2 157 -2 169 -9 21 -12
49 -84 38 -95 -4 -4 -36 -11 -70 -14 -107 -12 -91 -47 27 -58 82 -7 101 -13
101 -32 0 -41 86 15 100 64 15 54 13 62 -24 136 -19 37 -36 76 -39 87 -6 23
-35 25 -52 3 -9 -14 -41 -17 -195 -20 -222 -4 -339 -18 -485 -56 -22 -6 -76
-13 -119 -17 -55 -4 -81 -10 -86 -21 -19 -37 -42 -220 -47 -370 -10 -307 44
-704 133 -990 50 -159 116 -340 126 -346 4 -3 8 -13 8 -24 0 -18 119 -264 150
-310 9 -14 37 -58 61 -98 89 -149 130 -208 230 -332 158 -197 285 -323 493
-492 85 -68 193 -146 254 -183 10 -5 36 -22 60 -37 24 -16 47 -28 51 -28 5 0
20 -9 34 -20 30 -24 214 -120 229 -120 6 0 29 -9 52 -19 76 -35 114 -51 124
-51 5 0 23 -7 38 -15 16 -8 36 -15 44 -15 8 0 24 -7 34 -15 11 -8 33 -15 49
-15 16 0 41 -6 55 -14 15 -8 47 -21 72 -30 49 -18 98 -51 89 -60 -3 -4 -33
-13 -65 -21 -66 -17 -64 -16 -188 -74 -49 -23 -103 -45 -120 -48 -17 -3 -62
-21 -101 -40 -51 -25 -79 -33 -102 -29 -18 2 -35 0 -39 -5 -9 -15 -74 -39
-105 -39 -15 0 -40 -5 -56 -11 -90 -34 -511 -63 -591 -41 -43 13 -25 27 49 41
41 7 101 22 134 33 33 10 89 26 125 35 62 15 100 29 163 59 16 8 33 14 37 14
5 0 26 11 46 25 21 14 49 28 63 32 32 8 132 68 166 99 15 14 38 32 51 41 28
18 30 31 10 59 -14 18 -16 18 -80 -15 -37 -19 -69 -38 -72 -42 -3 -5 -31 -20
-62 -34 -31 -14 -70 -33 -87 -42 -112 -59 -149 -74 -220 -94 -44 -11 -112 -32
-151 -44 -39 -13 -114 -28 -166 -35 -52 -6 -117 -17 -145 -24 -81 -21 -333 -5
-518 33 -82 17 -163 37 -180 45 -79 35 -107 46 -121 46 -9 0 -33 8 -53 19 -20
10 -56 28 -81 40 -25 11 -67 35 -95 51 -27 16 -57 33 -65 36 -8 4 -22 13 -30
20 -8 7 -27 16 -42 19 -24 6 -28 4 -28 -13 0 -19 66 -82 86 -82 4 0 17 -9 28
-19 12 -11 53 -36 91 -56 39 -20 97 -52 130 -70 66 -37 356 -155 380 -155 8 0
55 -13 105 -30 50 -16 105 -30 123 -30 17 0 57 -7 87 -15 29 -8 106 -17 170
-20 63 -3 130 -8 148 -11 56 -9 513 16 575 32 32 8 68 14 79 14 24 0 184 37
213 49 57 24 131 51 139 51 9 0 292 139 331 163 11 7 37 27 58 45 41 35 75 40
172 21 223 -41 311 -50 550 -56 300 -6 491 10 724 62 153 34 163 33 215 -15
51 -47 301 -178 401 -209 39 -12 79 -27 90 -32 43 -20 223 -66 365 -93 95 -18
706 -22 760 -5 19 6 69 15 109 19 41 5 111 21 155 34 45 14 115 34 156 46 41
12 110 37 153 56 43 19 84 34 91 34 7 0 35 12 62 26 27 15 90 47 139 72 94 48
222 130 244 156 7 9 11 22 8 31 -8 19 -53 4 -122 -41 -50 -32 -277 -144 -294
-144 -4 0 -55 -15 -112 -34 -205 -67 -410 -89 -661 -70 -179 14 -249 25 -378
65 -52 15 -108 31 -125 35 -16 3 -68 25 -115 49 -47 23 -96 46 -109 50 -14 4
-49 23 -79 42 -76 49 -199 106 -212 98 -14 -8 -12 -36 3 -57 30 -39 131 -103
267 -169 217 -107 273 -129 322 -129 14 0 45 -11 70 -24 31 -16 78 -28 143
-37 155 -19 99 -34 -140 -36 -217 -2 -309 8 -449 52 -44 14 -92 25 -108 25
-18 0 -38 10 -53 26 -14 15 -29 23 -36 19 -19 -13 -173 38 -206 67 -12 11 -26
17 -32 13 -6 -3 -40 10 -76 29 -36 20 -85 40 -108 46 -131 34 -132 60 -2 100
39 12 83 28 98 36 16 8 33 14 39 14 12 0 70 24 120 51 20 10 45 19 55 19 40 0
325 148 446 232 22 16 44 28 50 28 5 0 24 12 42 28 18 15 52 41 76 57 43 31
87 65 198 157 89 74 340 327 357 361 8 15 19 27 24 27 13 0 240 308 240 326 0
3 14 26 32 51 41 60 85 141 153 283 31 63 62 128 70 143 8 16 15 34 15 41 0 6
15 48 33 91 18 44 41 107 51 140 83 281 81 276 106 430 11 72 25 157 31 190 6
33 13 173 16 310 4 236 -2 337 -26 445 -5 25 -12 63 -14 85 -17 146 -47 287
-83 393 -32 95 -8 138 47 83 17 -17 34 -31 39 -31 4 0 33 -20 63 -45 31 -25
60 -45 65 -45 5 0 17 -10 28 -21 10 -12 33 -28 49 -36 65 -30 206 -135 233
-174 7 -11 18 -19 24 -19 14 0 171 -162 223 -230 22 -29 59 -73 81 -98 23 -25
50 -61 60 -81 10 -20 31 -57 46 -82 16 -25 28 -54 28 -64 0 -10 10 -29 22 -42
15 -16 19 -26 11 -34 -7 -7 -29 8 -70 50 -33 34 -65 61 -71 61 -6 0 -16 9 -22
20 -6 12 -37 40 -68 63 -31 23 -70 55 -87 71 -26 24 -130 93 -267 177 -24 15
-65 34 -93 44 -27 10 -57 24 -65 30 -24 19 -76 25 -95 11 -37 -27 -10 -54 118
-117 119 -59 174 -92 209 -123 9 -8 35 -24 57 -35 22 -12 43 -25 46 -31 4 -6
23 -21 43 -34 58 -37 233 -208 277 -271 22 -32 56 -75 75 -98 36 -41 51 -64
115 -177 21 -36 51 -86 67 -112 16 -26 36 -67 43 -90 8 -24 32 -96 54 -161 23
-65 41 -130 41 -145 1 -15 8 -54 16 -87 13 -50 24 -251 24 -438 0 -27 17 -11
25 23 4 17 13 30 21 30 12 0 14 36 14 215 0 161 -3 214 -12 213 -13 -3 -19 27
-37 177 -12 93 -18 131 -44 250 -16 72 -72 241 -86 260 -4 5 -15 33 -24 62
-10 28 -45 103 -79 165 -34 62 -69 127 -77 143 -22 41 -123 190 -167 245 -113
144 -223 258 -344 358 -41 34 -91 75 -111 92 -20 16 -40 30 -45 30 -5 0 -25
13 -44 29 -19 15 -53 38 -75 50 -44 23 -62 34 -115 68 -19 12 -64 32 -100 44
-93 31 -92 30 -124 95 -16 32 -35 71 -42 86 -8 14 -14 34 -14 43 0 9 -7 29
-15 43 -8 15 -24 50 -36 77 -49 112 -93 195 -162 310 -55 90 -197 299 -240
351 -180 222 -167 193 -142 315 27 128 19 327 -21 510 -8 37 -14 89 -14 116 0
27 -13 86 -28 133 -16 47 -39 119 -52 160 -12 41 -40 114 -61 161 -22 48 -39
90 -39 94 0 3 -20 40 -45 81 -25 40 -45 77 -45 82 0 4 -36 62 -80 127 -113
170 -110 166 -150 210 -20 22 -52 60 -70 85 -19 25 -48 59 -65 75 -127 122
-184 174 -221 200 -23 17 -68 50 -100 75 -68 52 -75 57 -186 130 -99 65 -134
84 -208 109 -31 11 -56 26 -58 35 -4 19 -42 22 -42 3 0 -17 29 -57 42 -57 5 0
23 -10 38 -22 15 -13 50 -36 77 -51 75 -45 104 -64 158 -108 28 -22 73 -57
100 -78 28 -21 77 -69 110 -107 32 -38 85 -97 117 -132 32 -34 67 -81 78 -103
12 -22 40 -68 63 -103 41 -61 68 -118 118 -251 12 -33 28 -75 36 -93 13 -29
38 -119 85 -307 6 -22 11 -174 12 -337 1 -199 5 -301 12 -308 8 -8 17 -6 33 7
39 31 62 269 46 473 -14 181 -27 278 -43 306 -6 12 -17 64 -23 115 -9 71 -18
102 -36 127 -14 19 -23 42 -20 55 3 19 6 17 20 -15 9 -21 31 -53 47 -72 17
-18 40 -53 51 -77 11 -24 34 -66 50 -94 16 -27 29 -58 29 -67 0 -10 16 -46 35
-81 19 -35 35 -72 35 -83 0 -10 7 -28 15 -38 8 -11 15 -31 15 -45 1 -26 28
-115 44 -139 4 -7 10 -41 12 -75 3 -34 7 -69 10 -77 6 -17 25 -149 29 -200 2
-19 8 -102 14 -185 6 -82 15 -165 20 -182 9 -31 8 -33 -14 -33 -16 0 -61 32
-135 98 -61 53 -124 106 -140 118 -16 12 -43 33 -60 48 -17 14 -38 26 -46 26
-8 0 -17 6 -20 14 -7 18 -131 112 -199 151 -27 16 -57 34 -65 41 -8 7 -37 24
-65 39 -27 14 -84 44 -125 65 -41 22 -78 40 -82 40 -4 0 -41 16 -82 35 -41 19
-82 35 -90 35 -8 0 -17 4 -20 9 -4 5 -24 12 -46 16 -22 4 -42 10 -45 15 -20
32 -482 145 -655 160 -52 5 -144 14 -205 20 -179 20 -582 1 -760 -35 -38 -8
-92 -19 -120 -24 -127 -24 -306 -73 -387 -105 -35 -14 -97 -36 -138 -51 -41
-14 -79 -30 -84 -35 -6 -6 -17 -10 -24 -10 -17 0 -315 -148 -359 -177 -15 -11
-55 -37 -88 -58 -68 -44 -199 -142 -262 -195 -86 -73 -206 -176 -251 -218 -42
-38 -86 -61 -97 -50 -2 2 0 21 6 43 5 22 14 117 19 210 6 94 12 198 15 232 12
139 72 403 98 429 4 4 7 18 7 32 0 24 16 68 49 132 10 19 21 47 25 62 3 14 18
40 32 57 14 17 23 35 19 41 -4 6 7 28 24 49 17 21 31 44 31 50 0 6 9 16 20 23
11 7 20 22 20 33 0 24 25 63 34 54 6 -5 -5 -47 -36 -147 -10 -33 -26 -118 -33
-177 -2 -16 -11 -70 -20 -120 -37 -201 -14 -560 40 -614 l23 -24 12 24 c10 17
11 57 5 159 -12 203 0 420 29 545 9 39 22 97 27 130 12 66 17 82 66 205 19 47
42 103 51 125 9 22 29 59 44 82 15 23 28 46 28 50 0 5 20 38 45 73 25 35 45
69 45 76 0 6 21 33 46 60 25 27 61 67 79 90 82 100 281 271 365 315 21 11 43
26 49 33 6 7 29 21 51 31 22 10 40 21 40 25 0 4 18 20 40 35 22 15 40 34 40
41 0 22 -37 16 -43 -6z m683 -1657 c0 -26 -90 -113 -117 -113 -13 0 -46 11
-73 25 -26 13 -67 27 -89 31 -44 7 -52 17 -23 29 44 19 174 43 235 44 57 1 67
-2 67 -16z m885 -23 c220 -43 366 -86 579 -172 124 -49 338 -157 394 -198 37
-26 41 -33 30 -49 -25 -41 -142 -77 -278 -86 -108 -7 -163 -24 -236 -71 -28
-19 -56 -34 -62 -34 -6 0 -33 11 -60 25 -28 14 -57 25 -66 25 -9 0 -45 12 -79
26 -34 15 -90 30 -125 34 -35 5 -71 15 -80 23 -9 8 -37 18 -62 22 -72 12 -72
12 -76 112 -3 122 -36 193 -133 295 -39 41 -67 78 -63 83 12 13 149 -3 317
-35z m-452 -65 c62 -18 146 -70 162 -101 6 -10 19 -32 30 -48 14 -22 19 -47
20 -102 0 -81 -14 -110 -76 -152 -30 -21 -41 -23 -94 -17 -162 19 -221 21
-303 15 -82 -7 -152 -29 -152 -48 0 -15 70 -42 109 -42 20 0 79 7 129 16 50 8
103 14 118 12 53 -6 39 -24 -59 -80 -56 -32 -98 -73 -143 -139 -40 -60 -55
-99 -38 -99 4 0 39 29 79 65 71 63 97 76 110 55 11 -18 23 -10 30 19 8 38 38
63 110 91 32 13 84 44 115 69 54 45 57 46 135 49 53 2 99 -2 135 -13 30 -9 82
-23 116 -30 33 -8 105 -32 160 -54 54 -21 109 -42 122 -46 12 -3 22 -10 22
-14 0 -4 11 -13 25 -19 18 -9 25 -19 25 -41 0 -16 -5 -33 -11 -37 -17 -10 -79
-111 -79 -128 0 -8 8 -20 18 -25 24 -14 106 -99 197 -206 28 -33 60 -69 72
-81 33 -33 50 -98 33 -130 -19 -35 -39 -44 -114 -51 -55 -5 -69 -3 -99 16 -39
24 -47 26 -47 11 0 -24 -53 -92 -90 -116 l-40 -27 -38 19 c-20 10 -39 22 -42
25 -7 9 -111 60 -140 70 -14 4 -69 26 -123 48 -54 23 -115 41 -135 41 -21 1
-55 7 -77 15 -36 13 -267 40 -340 39 -88 -1 -296 -25 -334 -38 -24 -9 -59 -16
-77 -16 -29 0 -161 -44 -204 -69 -9 -5 -30 -12 -48 -16 -18 -4 -59 -22 -90
-40 -31 -19 -71 -41 -88 -48 -17 -8 -35 -20 -38 -26 -13 -21 -45 -11 -83 25
-21 19 -54 44 -74 54 -35 18 -149 134 -149 152 0 15 -251 9 -305 -7 -52 -16
-75 -14 -75 7 0 23 -62 141 -102 195 -33 46 -128 232 -128 253 0 13 -80 169
-90 175 -22 14 -7 45 43 87 56 47 126 96 185 129 20 11 57 33 82 49 25 16 79
47 120 68 41 21 97 51 124 67 l49 29 206 1 c160 1 222 6 276 19 47 12 112 18
201 19 l131 1 42 -33 c31 -25 41 -40 41 -61 0 -44 -43 -87 -103 -104 -100 -29
-186 -46 -231 -46 -87 0 -179 -52 -291 -164 -53 -53 -73 -81 -80 -111 -8 -32
-17 -44 -45 -57 -117 -55 -189 -94 -218 -116 -18 -14 -47 -32 -65 -41 -17 -9
-33 -23 -35 -32 -1 -8 18 -37 43 -63 25 -27 52 -60 61 -75 9 -15 40 -43 69
-64 43 -30 55 -34 64 -23 15 18 -1 61 -36 98 -17 17 -24 34 -20 47 3 11 -1 25
-9 32 -18 15 -18 39 0 39 8 0 17 8 20 18 3 10 34 33 69 50 79 42 90 51 102 87
9 27 16 31 65 38 69 10 137 67 80 67 -11 0 -20 5 -20 10 0 6 13 10 30 10 16 0
33 6 37 13 14 21 89 56 134 63 67 9 92 22 111 54 20 34 32 36 77 14 31 -16 37
-15 101 7 56 19 75 21 107 13 33 -8 38 -13 35 -34 -7 -54 -1 -127 14 -165 24
-60 58 -125 65 -125 14 0 16 56 3 82 -8 15 -14 40 -14 55 0 15 -6 40 -14 54
-8 15 -17 63 -21 107 l-7 81 51 86 c28 48 51 96 51 107 0 11 -16 34 -35 51
-52 46 -46 86 15 100 14 3 59 14 100 25 134 36 190 37 293 7z m1757 -436 c0
-17 -4 -28 -10 -24 -5 3 -10 17 -10 31 0 13 5 24 10 24 6 0 10 -14 10 -31z
m-1488 -2972 c29 -24 76 -54 103 -67 28 -12 64 -34 82 -47 18 -13 57 -33 88
-45 47 -18 55 -25 55 -46 0 -14 -6 -33 -14 -41 -7 -9 -18 -29 -24 -46 -6 -16
-27 -72 -46 -124 -20 -51 -36 -111 -36 -131 0 -21 -8 -55 -17 -76 -23 -55 -22
-547 2 -674 25 -134 34 -169 55 -215 11 -24 27 -70 35 -102 14 -53 69 -171 85
-183 4 -3 11 -20 15 -39 4 -19 27 -63 51 -99 24 -36 44 -71 44 -77 0 -6 20
-36 45 -66 56 -67 55 -65 96 -120 19 -24 78 -88 132 -143 53 -54 97 -107 97
-116 0 -14 -11 -20 -42 -25 -24 -4 -68 -14 -98 -22 -30 -9 -98 -17 -150 -18
-64 -2 -116 -10 -160 -24 -91 -30 -249 -62 -350 -71 -47 -4 -119 -13 -160 -19
-132 -20 -612 -19 -693 1 -20 5 -85 13 -145 18 -59 5 -129 15 -157 21 -81 19
-189 49 -206 59 -9 5 -34 12 -55 15 -69 12 -201 66 -216 89 -13 19 -9 23 32
40 69 27 119 65 133 99 8 17 21 38 30 46 19 15 23 76 6 86 -14 9 -206 -186
-214 -218 -10 -38 -39 -39 -124 -6 -103 41 -109 48 -82 93 64 103 267 216 388
216 54 0 83 14 83 41 0 11 20 60 45 108 25 48 45 91 45 95 0 4 18 38 40 76 22
38 40 79 40 92 1 13 7 34 15 48 8 14 14 37 15 52 0 14 6 39 14 55 28 57 39
100 51 208 7 61 18 126 24 145 17 54 14 344 -4 413 -17 66 -20 166 -6 215 6
18 22 42 36 54 14 11 32 33 40 48 8 16 38 52 67 82 29 29 64 75 77 102 23 46
23 53 11 110 -6 34 -14 72 -17 86 -6 31 30 80 59 80 11 0 41 -15 67 -34 80
-58 114 -68 252 -74 99 -3 138 -1 184 13 56 16 155 71 169 94 14 22 56 10 108
-32z"/>
<path d="M4050 6012 c0 -11 5 -24 10 -27 16 -10 12 -101 -5 -115 -8 -7 -15
-17 -15 -22 0 -5 -12 -25 -26 -44 -31 -40 -27 -59 18 -77 28 -12 34 -12 41 0
5 8 6 25 3 37 -3 13 3 48 14 79 26 74 25 98 -6 144 -33 49 -34 50 -34 25z"/>
<path d="M3770 6000 c-15 -27 -13 -32 12 -28 27 4 36 33 14 41 -10 4 -20 -1
-26 -13z"/>
<path d="M4885 6000 c-4 -6 -4 -23 -1 -37 4 -13 2 -30 -3 -37 -16 -19 -26 -96
-12 -96 6 0 11 5 11 12 0 6 8 20 17 30 12 14 17 34 15 71 -2 52 -14 78 -27 57z"/>
<path d="M4580 5858 c1 -19 80 -74 117 -82 36 -8 123 2 123 14 0 4 -19 10 -42
13 -89 13 -144 28 -170 47 -19 14 -28 16 -28 8z"/>
<path d="M4035 5629 c-16 -16 -52 -50 -80 -74 -44 -39 -47 -45 -27 -45 50 0
132 69 146 123 8 35 -2 34 -39 -4z"/>
<path d="M5385 5634 c-4 -16 -13 -47 -21 -69 -17 -49 -17 -55 -3 -55 17 0 79
63 79 80 -1 8 -12 28 -25 44 l-24 30 -6 -30z"/>
<path d="M3649 5561 c-45 -9 -106 -45 -205 -119 -42 -31 -85 -56 -95 -57 -10
0 -19 -4 -19 -10 1 -21 78 -2 150 37 41 23 94 51 117 64 57 31 116 38 207 24
43 -6 80 -10 82 -7 3 3 -13 19 -36 37 -34 27 -51 33 -103 36 -34 1 -78 -1 -98
-5z"/>
<path d="M5475 5420 c-11 -5 -35 -9 -52 -9 -18 -1 -33 -5 -33 -9 0 -4 16 -24
36 -43 20 -18 40 -44 45 -56 14 -38 39 -29 39 15 0 20 7 49 14 64 13 25 13 29
-4 38 -21 11 -19 11 -45 0z"/>
<path d="M5606 5389 c-33 -38 -33 -49 -1 -49 18 0 31 10 45 32 33 55 -1 68
-44 17z"/>
<path d="M4482 1201 c-6 -3 -20 -27 -32 -51 -41 -88 -73 -132 -131 -180 l-60
-50 -62 6 c-34 4 -66 10 -71 15 -6 5 -22 9 -36 9 -14 0 -43 9 -65 20 -22 11
-47 20 -57 20 -9 0 -19 4 -22 9 -4 5 -24 12 -45 16 -22 3 -47 13 -58 20 -10 8
-28 15 -40 15 -12 0 -25 5 -28 10 -8 13 -135 13 -135 0 0 -5 19 -14 43 -21 23
-6 63 -20 89 -30 26 -11 53 -19 61 -19 8 0 20 -7 27 -15 7 -8 22 -15 34 -15
11 0 34 -7 50 -15 15 -8 35 -15 43 -15 8 0 31 -9 51 -19 20 -11 49 -24 65 -30
40 -15 35 -45 -12 -73 -82 -48 -127 -83 -149 -116 -12 -18 -22 -38 -22 -43 0
-5 -5 -18 -12 -29 -7 -10 -10 -22 -7 -25 12 -11 104 39 148 81 25 24 49 44 53
44 4 0 27 29 52 63 l46 64 143 6 c79 3 170 13 202 22 33 8 96 15 142 15 l83 0
20 -40 c43 -85 262 -272 287 -246 18 17 -53 146 -80 146 -7 0 -33 20 -57 45
-24 25 -49 45 -55 45 -6 0 -22 11 -34 24 -20 21 -21 25 -6 39 8 9 30 19 48 22
43 7 134 0 149 -13 7 -5 40 -13 72 -17 55 -6 148 -47 187 -81 8 -8 20 -14 25
-14 5 0 29 -16 53 -35 77 -62 133 -61 66 1 -50 46 -183 134 -201 134 -8 0 -25
6 -37 14 -12 7 -49 19 -82 26 -33 7 -76 17 -95 23 -19 6 -106 10 -192 10
l-157 -1 -39 33 c-32 28 -68 82 -117 176 -11 22 -28 30 -43 20z"/>
<path d="M5637 5833 c-4 -3 -7 -14 -7 -24 0 -17 12 -28 103 -95 47 -35 47 -35
47 -94 0 -78 13 -78 93 -1 65 63 69 83 22 101 -15 6 -41 21 -59 35 -18 14 -37
25 -41 25 -5 0 -25 11 -44 24 -37 25 -102 41 -114 29z"/>
<path d="M2163 5514 c-3 -9 -3 -49 0 -90 5 -72 16 -100 78 -216 33 -61 15 -93
-100 -171 -49 -34 -81 -100 -81 -166 0 -76 2 -77 129 -51 65 13 124 20 142 16
59 -12 62 6 13 102 -54 108 -56 141 -11 176 45 35 73 33 110 -8 18 -18 50 -53
72 -76 61 -66 145 -112 145 -81 0 6 -29 36 -65 68 -43 38 -81 85 -110 135 -50
86 -72 98 -144 78 -23 -6 -46 -8 -51 -5 -6 3 -10 29 -10 57 0 46 -20 126 -41
170 -5 10 -9 24 -9 31 0 17 -32 47 -49 47 -6 0 -14 -7 -18 -16z"/>
<path d="M6737 5497 c-14 -18 -30 -51 -36 -73 -6 -22 -17 -48 -25 -59 -9 -11
-16 -31 -16 -46 0 -14 -18 -62 -40 -108 -22 -45 -40 -90 -40 -98 0 -9 -16 -49
-35 -89 -43 -88 -52 -168 -20 -171 15 -2 26 9 44 47 13 28 28 50 32 50 4 0 27
42 52 93 79 159 137 342 137 435 0 62 -15 68 -53 19z"/>
<path d="M5738 5069 c-140 -98 -167 -186 -34 -110 28 16 63 42 77 58 86 95 62
125 -43 52z"/>
<path d="M6026 4918 c-8 -13 -19 -43 -25 -68 -5 -25 -17 -49 -26 -55 -9 -5
-26 -18 -37 -27 -35 -30 -89 -23 -141 17 -42 32 -52 35 -112 35 -65 0 -108 16
-128 47 -10 17 -37 17 -37 0 0 -7 14 -28 31 -46 25 -28 41 -35 102 -46 72 -12
174 -66 162 -85 -3 -4 -38 -13 -78 -19 -80 -13 -143 -28 -169 -42 -10 -5 -24
-9 -31 -9 -18 0 -68 -53 -114 -122 -22 -31 -73 -86 -114 -121 -53 -45 -84 -81
-106 -123 -29 -55 -31 -68 -38 -204 -4 -80 -10 -152 -15 -160 -4 -8 -10 -35
-14 -59 l-7 -45 19 25 c54 69 62 100 62 252 l0 143 46 55 c26 30 58 60 73 68
14 7 40 26 56 41 17 16 39 30 50 32 13 2 21 12 23 28 8 71 36 113 103 156 34
21 51 24 146 25 60 1 131 7 158 14 28 8 76 20 107 28 48 13 65 13 106 3 53
-14 186 -78 217 -105 47 -39 115 -81 133 -81 10 0 27 9 37 20 34 37 68 26 156
-50 70 -61 87 -70 120 -70 30 0 42 6 54 24 14 21 14 30 3 68 -18 60 -77 146
-108 156 -14 5 -38 5 -55 1 -44 -13 -63 -2 -86 47 -12 24 -25 46 -29 49 -5 3
-21 -5 -37 -18 -15 -13 -35 -26 -44 -30 -23 -8 -63 36 -56 62 3 11 0 27 -7 36
-11 15 -16 14 -58 -4 -25 -10 -49 -24 -52 -30 -4 -6 -19 -11 -33 -11 -34 0
-63 39 -91 125 -13 38 -29 76 -34 83 -17 20 -66 15 -82 -10z m91 -155 c23 -26
43 -52 43 -57 0 -10 -150 -3 -168 8 -9 5 -1 21 24 52 20 24 41 44 47 44 6 0
30 -21 54 -47z m251 -94 c18 -10 37 -19 42 -19 18 0 140 -61 140 -70 0 -14
-47 -25 -106 -25 -44 0 -59 6 -122 49 -40 26 -72 52 -72 57 0 4 10 15 22 23
24 17 45 14 96 -15z"/>
<path d="M2552 4879 c-35 -14 -16 -29 37 -29 39 0 52 -5 76 -30 27 -28 33 -30
108 -30 58 0 78 3 75 13 -3 6 -22 16 -44 21 -21 4 -72 21 -111 37 -76 30 -103
34 -141 18z"/>
<path d="M2467 4821 c-27 -32 -35 -61 -18 -61 15 0 53 59 49 77 -2 13 -9 10
-31 -16z"/>
<path d="M6647 4836 c-60 -16 -76 -30 -61 -54 9 -14 45 -20 200 -36 104 -10
200 -23 214 -29 14 -5 33 -9 43 -8 10 1 24 -2 30 -7 13 -10 72 -21 150 -26 35
-3 50 0 54 11 6 15 -33 63 -51 63 -6 1 -29 9 -51 20 -22 11 -55 19 -73 20 -18
0 -49 7 -69 15 -19 8 -54 15 -77 15 -22 0 -72 7 -111 15 -84 18 -134 18 -198
1z"/>
<path d="M2892 4690 c-36 -41 -82 -50 -266 -50 -154 0 -187 -6 -154 -26 6 -4
77 -12 157 -18 l146 -11 5 -40 c5 -35 7 -37 14 -17 8 24 53 52 83 52 10 0 36
10 58 21 24 13 56 21 82 21 24 -1 43 3 43 8 0 6 -9 10 -19 10 -11 0 -42 5 -70
12 -44 10 -50 15 -53 38 l-3 28 -23 -28z"/>
<path d="M4686 4628 c-13 -18 -16 -56 -16 -211 0 -180 1 -190 25 -237 15 -30
37 -56 55 -65 16 -8 34 -24 40 -35 6 -11 17 -20 24 -20 16 0 83 -71 120 -126
14 -22 32 -48 40 -59 9 -13 19 -70 26 -160 13 -155 20 -179 78 -258 44 -59
170 -177 189 -177 7 0 16 -8 21 -17 10 -18 45 -45 159 -122 96 -65 180 -87
278 -71 41 7 101 8 144 4 66 -6 78 -10 108 -40 45 -45 46 -101 3 -181 -16 -31
-30 -61 -30 -68 0 -6 -13 -24 -30 -40 -16 -15 -34 -43 -40 -61 -6 -17 -35 -57
-65 -88 -30 -31 -55 -58 -55 -61 0 -2 -20 -25 -45 -50 -25 -25 -49 -54 -53
-64 -4 -10 -54 -54 -112 -96 -58 -43 -109 -84 -113 -92 -4 -7 -15 -13 -22 -13
-8 0 -32 -16 -54 -35 -21 -19 -43 -35 -49 -35 -6 0 -17 -24 -26 -52 -25 -88
-5 -282 38 -366 14 -28 26 -64 26 -80 0 -29 20 -83 66 -177 13 -28 24 -56 24
-63 0 -7 7 -15 16 -19 8 -3 20 -16 25 -29 8 -22 39 -35 39 -16 0 7 -24 69 -98
252 -17 41 -33 91 -37 110 -4 19 -14 58 -22 85 -30 98 -32 111 -42 199 -12 99
-6 118 36 135 16 6 37 16 48 23 11 7 45 29 75 48 126 79 335 286 426 422 20
29 44 62 54 73 10 11 33 49 50 84 18 35 47 79 66 98 30 30 34 40 36 91 5 138
-4 156 -102 201 -90 42 -175 50 -287 27 -61 -13 -91 -15 -118 -7 -35 9 -238
139 -307 196 -20 16 -65 53 -98 80 -34 28 -75 70 -92 95 -30 44 -31 47 -21
105 8 46 8 63 -2 75 -7 8 -25 50 -40 93 -49 142 -159 271 -282 329 l-43 20 0
234 c0 140 -4 234 -9 234 -6 0 -17 -10 -25 -22z"/>
<path d="M4264 4555 c-8 -45 0 -304 11 -329 8 -18 9 -18 22 0 16 22 19 298 3
338 -13 36 -28 32 -36 -9z"/>
<path d="M3105 4520 c-7 -12 2 -30 16 -30 12 0 12 27 0 35 -5 3 -12 1 -16 -5z"/>
<path d="M2840 4442 c0 -11 40 -29 100 -48 55 -17 50 -17 50 -1 0 31 -45 57
-98 57 -29 0 -52 -4 -52 -8z"/>
<path d="M1322 4105 c-10 -21 -9 -25 3 -25 8 0 15 4 15 9 0 5 3 16 6 25 10 26
-12 18 -24 -9z"/>
<path d="M2342 4118 c6 -18 58 -42 158 -74 47 -14 94 -32 105 -38 11 -7 40
-18 65 -25 115 -34 309 -139 475 -259 70 -51 270 -252 314 -316 37 -54 49 -59
80 -34 25 19 71 77 71 89 0 4 -22 10 -50 14 -44 6 -55 13 -97 61 -42 48 -71
77 -195 196 -26 24 -186 133 -270 183 -155 92 -340 175 -389 175 -15 0 -73 9
-129 20 -118 23 -143 25 -138 8z"/>
<path d="M2142 3783 c-19 -7 -84 -111 -79 -125 2 -7 11 4 20 24 8 20 25 43 36
50 12 7 21 18 21 25 0 7 8 17 18 22 17 11 7 13 -16 4z"/>
<path d="M2060 3356 c0 -72 83 -291 130 -341 10 -11 50 -55 89 -97 l71 -77 0
-74 c0 -82 18 -145 49 -176 25 -25 26 -60 6 -151 -16 -73 -19 -110 -7 -110 7
0 52 92 52 108 0 5 7 15 15 22 16 13 30 89 21 117 -3 10 -21 28 -39 39 -17 12
-41 38 -51 58 -19 35 -19 39 -4 69 24 46 29 82 18 111 -12 33 -86 114 -121
131 -37 20 -108 87 -124 119 -8 15 -17 42 -21 61 -3 18 -12 36 -20 39 -8 3
-14 16 -14 28 -1 13 -7 34 -15 48 -8 14 -14 42 -15 63 0 20 -4 37 -10 37 -5 0
-10 -11 -10 -24z"/>
<path d="M2460 2198 c2 -92 333 -468 411 -468 54 0 23 58 -96 183 -124 130
-152 162 -157 179 -5 20 -125 128 -143 128 -9 0 -15 -9 -15 -22z"/>
</g>
</svg>
