<svg height="512" viewBox="0 0 60 60" width="512" xmlns="http://www.w3.org/2000/svg"><g id="Page-1" fill="none" fill-rule="evenodd"><g id="011---Vaccine-Injection" fill="rgb(0,0,0)" fill-rule="nonzero" transform="translate(0 -1)"><path id="Shape" d="m44.455 1.281c-1.0994967.51339591-1.7814388 1.63858989-1.7278084 2.85085727.0536305 1.21226738.8322707 2.27284549 1.9728084 2.68714273l2.819 1.027-1.368 3.759-2.822-1.026c-1.5568883-.5665881-3.2783145.2361472-3.845 1.793l-9.577 26.311c-.5665881 1.5568883.2361472 3.2783145 1.793 3.845-.9440288 2.5949054.3941591 5.463794 2.989 6.408l-3.871 10.634c-.130357.3375931-.0681497.7192734.1626574.998003.230807.2787295.5941954.4110114.9501739.3458855.3559785-.0651258.6489952-.3174963.7661687-.6598885l3.871-10.634c2.5946215.9441265 5.4633861-.3935559 6.408-2.988 1.5568883.5665881 3.2783145-.2361472 3.845-1.793l9.579-26.311c.2723963-.74777.2365096-1.573133-.0997619-2.2944382-.3362715-.7213053-.9453688-1.2794382-1.6932381-1.5515618l-2.819-1.026 1.366-3.756 2.82 1.026c.3288086.1195527.6761334.1801484 1.026.179 1.4563532.0013248 2.7032965-1.0434963 2.9568956-2.47760018.253599-1.43410385-.5594079-2.84319531-1.9278956-3.34139982l-11.279-4.104c-.7475952-.27435075-1.5738074-.23871022-2.295.099zm6.923 25.193c-.4711271-.3055068-.9761866-.555184-1.505-.744-1.2780121-.4953482-2.6786621-.5799395-4.007-.242-1.9942099.4921662-4.0881289-.2695462-5.3-1.928-.6069722-.8294853-1.3962356-1.508587-2.307-1.985l.707-1.942.939.342c.1094576.0405381.225277.0611959.342.061.4856195.0004014.9013315-.3481429.9856407-.8263881s-.187158-.9479313-.6436407-1.1136119l-.939-.342.684-1.879 13.156 4.788zm-11.832 21.167c-.7207187.3379803-1.5466046.3739823-2.294.1l-1.879-.684c-.7478122-.2719341-1.3569552-.829822-1.6934026-1.5509145-.3364473-.7210925-.3726337-1.5463105-.1005974-2.2940855l3.759 1.368 3.762 1.368c-.2710124.7492839-.8306183 1.3589446-1.554 1.693zm5.4-3.486c-.0902529.2494762-.2759419.4528638-.5161937.5653939s-.5153735.1249789-.7648063.0346061l-9.084-3.3-1.252-.456-.939-.342c-.2497158-.0902433-.4532895-.2760945-.5658418-.5165811-.1125522-.2404866-.1248414-.5158625-.0341582-.7654189l.342-.94.94.342c.1094349.0406216.2252694.0612821.342.061.4856195.0004014.9013315-.3481429.9856407-.8263881s-.187158-.9479313-.6436407-1.1136119l-.94-.342 1.026-2.82.94.342c.1094349.0406216.2252694.0612821.342.061.4856195.0004014.9013315-.3481429.9856407-.8263881s-.187158-.9479313-.6436407-1.1136119l-.94-.342 1.027-2.819.939.342c.1098064.0405309.2259523.0611866.343.061.4854306-.0000847.9006891-.3487798.9847265-.8268808.0840373-.478101-.1874217-.9475027-.6437265-1.1131192l-.94-.342 1.34-3.68c.5648599.3502064 1.0551953.8082606 1.443 1.348 1.6769476 2.2311923 4.5121806 3.2631842 7.231 2.632.9719941-.2664507 2.0041338-.2110197 2.942.158.5386667.1816239 1.0390866.4613301 1.476.825zm9.543-27.076c.1123854.2403884.1246166.5155893.034.765l-.342.939-13.16-4.783.342-.939c.0902433-.2497158.2760945-.4532895.5165811-.5658418.2404866-.1125522.5158625-.1248414.7654189-.0341582l6.892 2.508.626.228 3.758 1.368c.2491894.0889872.4523286.2741176.564.514zm-6.458-4.791 1.369-3.758 1.879.684-1.368 3.758zm9.879-4.606c.1130494.24027973.1249379.51587768.033.765-.0902433.24971577-.2760945.45328952-.5165811.56584176s-.5158625.1248414-.7654189.03415824l-3.761-1.37-3.76-1.368-3.759-1.369c-.3423922-.11717353-.5947627-.41019023-.6598885-.76616869-.0651259-.35597847.067156-.71936688.3458855-.95017393.2787296-.23080705.6604099-.29301441.998003-.16265738l11.277 4.105c.2494421.08965163.4525729.27549476.564.516z"/><path id="Shape" d="m42.213 28.263c-.5191926-.1876279-1.0922108.0809657-1.2801436.600048-.1879329.5190823.0803242 1.0922582.599296 1.2804958.5189718.1882377 1.0923052-.0796826 1.2808476-.5985438.0906832-.2495564.078394-.5249323-.0341582-.7654189-.1125523-.2404866-.316126-.4263378-.5658418-.5165811z"/><path id="Shape" d="m39.39 38.942c-.5191926-.1876279-1.0922108.0809657-1.2801436.600048-.1879329.5190823.0803242 1.0922582.599296 1.2804958.5189718.1882377 1.0923052-.0796826 1.2808476-.5985438.0906832-.2495564.078394-.5249323-.0341582-.7654189-.1125523-.2404866-.316126-.4263378-.5658418-.5165811z"/><path id="Shape" d="m44.175 37.491c-.5191926-.1876279-1.0922108.0809657-1.2801436.600048-.1879329.5190823.0803242 1.0922582.599296 1.2804958.5189718.1882377 1.0923052-.0796826 1.2808476-.5985438.0906832-.2495564.078394-.5249323-.0341582-.7654189-.1125523-.2404866-.316126-.4263378-.5658418-.5165811z"/><path id="Shape" d="m47.253 29.034c-.5192854-.1878617-1.0925488.0807577-1.2804937.600013s.0805827 1.0925617.5998079 1.2805897c.5192252.1880281 1.0925746-.0804076 1.2806858-.5996027.0903728-.2494328.077924-.5245545-.0346061-.7648063s-.3159177-.4259408-.5653939-.5161937z"/><path id="Shape" d="m44.946 32.45c-.5191926-.1876279-1.0922108.0809657-1.2801436.600048-.1879329.5190823.0803242 1.0922582.599296 1.2804958.5189718.1882377 1.0923052-.0796826 1.2808476-.5985438.0906832-.2495564.078394-.5249323-.0341582-.7654189-.1125523-.2404866-.316126-.4263378-.5658418-.5165811z"/><path id="Shape" d="m40.5 32.962c-.5192854-.1878617-1.0925488.0807577-1.2804937.600013s.0805827 1.0925617.5998079 1.2805897c.5192252.1880281 1.0925746-.0804076 1.2806858-.5996027.0903728-.2494328.077924-.5245545-.0346061-.7648063s-.3159177-.4259408-.5653939-.5161937z"/><path id="Shape" d="m5 61h18c2.7600532-.0033061 4.9966939-2.2399468 5-5v-20c-.0044086-3.8641657-3.1358343-6.9955914-7-7-.5522847 0-1-.4477153-1-1v-1h1c1.1045695 0 2-.8954305 2-2v-6c0-1.1045695-.8954305-2-2-2h-14c-1.1045695 0-2 .8954305-2 2v6c0 1.1045695.8954305 2 2 2h1v1c0 .5522847-.44771525 1-1 1-3.86416566.0044086-6.99559136 3.1358343-7 7v20c.00330612 2.7600532 2.23994685 4.9966939 5 5zm21-25v4h-24v-4c0-.158.032-.308.047-.462.211.1.419.215.638.337 1.22694843.7643428 2.64976342 1.155226 4.095 1.125 1.44691415.0299758 2.87135198-.3612235 4.1-1.126.932023-.5987495 2.0226109-.9032779 3.13-.874 1.1061779-.0284834 2.1953526.276388 3.126.875 1.2264276.7646901 2.6490299 1.1556103 4.094 1.125 1.4431272.0309496 2.8639032-.3600418 4.088-1.125.218-.121.425-.233.635-.336.015.154.047.303.047.461zm0 16h-24v-10h24zm-3 7h-18c-1.65685425 0-3-1.3431458-3-3v-2h24v2c0 1.6568542-1.3431458 3-3 3zm-11-34v-6h4v6zm9 0h-3v-6h3zm-14-6h3v6h-3zm0 12c1.65685425 0 3-1.3431458 3-3v-1h8v1c0 1.6568542 1.3431458 3 3 3 1.8213904.0066743 3.4941466 1.0061874 4.363 2.607-.376.168-.709.349-1.016.519-.927512.598058-2.0137631.9026405-3.117.874-1.1058626.0284676-2.1947134-.2764106-3.125-.875-1.226808-.7646635-2.6497203-1.1555735-4.095-1.125-1.4445097-.0305407-2.8666808.3600091-4.093 1.124-.93442496.5993849-2.02722647.9045472-3.137.876-1.10640866.0278192-2.19571133-.2769904-3.127-.875-.307-.17-.639-.351-1.016-.518.86901538-1.6006573 2.54166974-2.6001094 4.363-2.607z"/><path id="Shape" d="m8 46h12c.5522847 0 1-.4477153 1-1s-.4477153-1-1-1h-12c-.55228475 0-1 .4477153-1 1s.44771525 1 1 1z"/><path id="Shape" d="m19 48h-10c-.55228475 0-1 .4477153-1 1s.44771525 1 1 1h10c.5522847 0 1-.4477153 1-1s-.4477153-1-1-1z"/></g></g></svg>